<svg xmlns="http://www.w3.org/2000/svg" id="Layer_1" version="1.1" viewBox="0 0 505.44 157.2"><defs><linearGradient id="linear-gradient" x1="19.51" x2="140.2" y1="16.52" y2="142.69" gradientUnits="userSpaceOnUse"><stop offset="0" stop-color="#f06f25"/><stop offset="1" stop-color="#e24558"/></linearGradient><style>.st0{fill:#fff}</style></defs><path d="M76.58 156.81c-6.43.03-14.86-1.58-21.12-3.53-10.02-3.12-19.99-8.77-27.93-15.69-7.7-6.71-13.87-14.6-18.49-23.69-1.86-3.66-3.58-8.06-4.91-11.93-.51-1.48-1.91-7.31-2.23-9.05-.49-2.66-.72-5.33-.99-8.07-.07-.69-.41-6.97-.39-7.18l.77-9.51c.21-2.58 2.26-11.02 3.18-13.81 3-9.1 7.5-17.61 13.64-24.93l2.08-2.48c.43-.51.8-1 1.26-1.46l3.11-3.1c1-.99 2.03-1.99 3.14-2.86l4.24-3.36c4.56-3.61 11.98-7.8 17.35-9.88l5.04-1.95c.95-.37 1.92-.63 2.94-.86l7.81-1.79C70.06.54 76.12.44 81.28.53c4.53.07 8.84.5 13.28 1.49l2.39.53c4.91 1.09 9.5 2.79 14.12 4.78 5.89 2.55 11.53 6.2 16.54 10.17l2.66 2.11 3.6 3.36 2.38 2.46c8.51 8.81 14.51 19.69 17.94 31.46.79 2.71 2.26 9.77 2.55 12.53.71 6.68.72 13.41-.23 20.07-.67 4.67-2.06 11.1-3.76 15.42l-1.69 4.29c-2.36 6.02-8.07 15.32-12.34 20.04l-2.07 2.29c-6.2 6.86-16.64 14.79-25.11 18.29l-4.44 1.84c-7.15 2.96-17.47 5.09-25.25 5.12l-5.31.02Zm4.77-92.88 1.84-7.38 2.3-9.23.97-3.88 1-3.96 1.52-6.16.92-3.65.96-3.83.77-3.08c.35-1.39.66-2.71.65-4.15-5.24-1.26-10.9-1.76-16.15-1.46-.8.05-9.28.42-8.87 1.73l.26.85 1.2 5.8.92 4.4.97 4.55.84 3.98.71 3.37 3.87 18.31 1.87 8.89c.27 1.27.41 2.37.99 3.78.83-1.58.85-2.96 1.25-4.47l1.18-4.43Zm-27.61 1.83 3.45 4.35 3.99 5.18.4.58c.09.14.82-.07.77-.29l-1.34-6.12-.81-3.83-.71-3.34-1.47-6.97-1.13-5.33-.96-4.54-4.57-21.53c-1.32.19-2.31.85-3.33 1.49l-3.4 2.12c-1.38.86-2.62 1.85-3.86 2.86l-2.01 1.63c-1.86 1.51-3.5 3.35-5.25 4.98-.98.91-.64 1.87.07 2.78l3.02 3.91 2.92 3.79 2.42 3.1 5.58 7.11 2.73 3.49 3.5 4.55Zm44.36 8.35 16.34-19.41 8.99-10.68 2.82-3.37c.19-.23.49-.94.33-1.15s-.45-.53-.72-.83l-3-3.26c-2.25-2.45-7.01-6.37-9.82-8.11l-3.64-2.25c-.22-.13-1.12-.2-1.18.04l-.25 1.02-2.31 9.22-2.51 9.93-.94 3.9-3.2 12.63-1.33 5.34-2.19 8.57c-.05.2.15.84.31.75.12-.07.41-.26.51-.37zM48.65 86.28c-.76-1.1-1.37-1.97-2.12-2.91l-8.24-10.43-10.08-12.91-3.4-4.29c-.95-1.19-1.3-2.06-1.85-2.05-.18 0-.55.31-.62.49-1.58 3.81-2.53 6.86-3.42 10.93l-.87 3.95c-.2.9-.33 1.97-.03 2.88l18.75 9.16 2.65 1.24 4.15 2.09s5.47 2.97 5.09 1.84Zm61.05 1.31 12.86-5.73 7.15-3.15 10.04-4.43c.8-.35.79-1.41.67-2.26-.57-4.12-1.41-8.01-2.62-12.01-.41-1.37-1.42-5.89-2.73-4.18a81 81 0 0 1-2.37 2.91l-4.85 5.71-3.38 4.02-6.56 7.83-3.96 4.71-4.73 5.62-.47.52c-.09.1-.03.52.1.53s.72-.02.84-.08Zm-68.02 14.37c-1.16-.54-1.94-.87-2.82-1.34-1.99-1.07-3.99-1.99-6.03-2.99l-2.74-1.34-6.65-3.21-3.02-1.57c-.54-.28-1.12-.44-1.75-.29.29 1.75.66 3.2 1.14 4.75l1.01 3.3c.65 2.14 1.6 4.17 2.77 6.12l17.28-.02c.48-1.14.85-2.37.82-3.41Zm17.13 3.43h40.03c.42 0 .44-.79.29-1.11-3.39-7.14-10.61-12.35-18.72-12.67-2.92-.11-5.5.07-8.16.96-4.75 1.58-8.76 4.38-11.54 8.55-.85 1.28-1.82 2.44-1.9 4.27m58.33.01 17.36-.03c2.13-3.62 3.49-8.05 4.41-12.06-.95-.18-1.53.15-2.3.47l-2.21.94-5.21 2.26-7.65 3.41-1.82.82-3.26 1.47c-.08.9.1 2 .67 2.71Zm.06 21.73c1.93-1.51 3.82-2.95 5.56-5.1H35.89c-.34.76.23 1.04.71 1.48l1.77 1.62c2.88 2.63 6 4.69 9.35 6.69 21.75 12.97 49.75 11.07 69.48-4.68Z" style="fill:url(#linear-gradient)"/><path d="m426.17 62.53-4.89 10.85-4.85 10.75-5.22 11.57-4.82 10.71c-.55 1.23-1.13 2.54-2 3.59-2.28 2.75-6.67 3.09-9.39.81-1.43-1.19-2.19-2.84-3.04-4.43l-5.15-9.65-4.67-8.77-2.36-4.35-3.4 5.99-4.07 7.28c-2.45 4.38-4.58 8.75-7.46 12.93-2.24 3.25-7.5 3.25-10.07.52-.96-1.01-1.52-2.15-2.05-3.34l-4.69-10.4-4.84-10.71-5.23-11.58-4.85-10.73-4.62-10.22-4.08-9.18 15.04-.04 3.72 8.22 4.85 10.71 4.72 10.41 4.7 10.4 2.84 6.12 2.75-4.77 4.66-8.31c2.3-4.11 4.3-8.12 6.96-12.06 2.31-3.43 8.07-3.49 10.48-.12 2.15 3 3.53 6.24 5.26 9.44l2.44 4.52 5.89 10.93 3.1-6.73 4.67-10.39 4.83-10.74 5.04-11.21 2.92-6.45h15.08l-3.49 7.95-4.73 10.47ZM257.3 84.89c-.29 7.39-4.26 14.72-9.51 19.6-3.07 2.86-6.7 4.83-10.6 6.41-2.86.73-5.58 1.39-8.6 1.39h-33.6V44.13l34.56.02c2.95 0 5.67.77 8.32 1.68 7.99 3.05 14.17 9.02 17.42 16.91 1.15 2.8 1.9 5.65 2.01 8.76.16 4.44.17 8.82 0 13.4Zm-13.76-1.24c.1-3.83.12-7.41-.02-11.12-.2-5.46-3.35-9.45-7.59-12.55-2-.79-3.88-2-6.12-2l-21.04-.05v40.56l20.08-.02c3.31 0 6.26-1.5 8.83-3.34 1.23-1.34 2.54-2.46 3.51-3.99 1.38-2.18 2.28-4.79 2.35-7.49M475.88 89.83l-5.59-6.54-9.72-11.4c-.57-.67-1.07-1.16-1.93-1.95l-.02 42.34h-13.87V50.37c.33-1.87 1.03-3.3 2.5-4.63 2.33-2.1 6.87-2.45 9.15.2l35 40.72.04-42.51 13.77-.04v62c-.39 2.99-2.49 5.25-5.04 5.94-3.09.83-5.73-.47-7.7-2.78L475.9 89.82ZM297.8 68.06l-3.52 7.85-4.88 10.93-4.8 10.75-3.1 6.97-3.47 7.72-15.08-.02 2.01-4.53 4.81-10.78 4.87-10.93 4.96-11.13 4.88-10.92 4.8-10.77 2.31-5.11c1.14-2.53 3.57-3.97 6.24-3.98s5.06 1.43 6.21 3.99l4.88 10.91 4.97 11.12 4.87 10.9 4.82 10.8 4.87 10.95 4.17 9.47-15.02.02-3.95-8.87-4.88-10.92-4.82-10.79-4.42-9.94-1.74-3.69Z" class="st0"/></svg>