<svg xmlns="http://www.w3.org/2000/svg" viewBox="0 0 2927.51 736.69"><defs><style>.cls-2{fill:#fff}</style></defs><g id="Layer_2" data-name="Layer 2"><g id="Layer_1-2" data-name="Layer 1"><path d="M628.81 107.89a368.35 368.35 0 1 0-520.92 520.92 368.35 368.35 0 0 0 520.92-520.92m-260.46-39a298.1 298.1 0 0 1 190.35 68.4L314.87 232.2 71.74 326.84C92 181.27 217.29 68.85 368.35 68.85ZM71.76 410l199-77.46-110.39 251.1A299 299 0 0 1 71.76 410m296.59 257.84a297.6 297.6 0 0 1-144.06-37l148.62-338.05 21.53-8.38L267.56 573l71 31.19L496.6 244.64l21.4-8.34L381 548l71 31.2 165.58-376.73a297.7 297.7 0 0 1 50.26 165.88c0 165.14-134.35 299.49-299.49 299.49" style="fill:#ff9015"/><path d="M875.14 209.29h96.43l77 234 77.52-234H1224v337.49h-62.87V307.61h-.94l-82.72 239.17h-57.19L937.54 310h-.95v236.78h-61.45ZM1359.17 483.92h190.49v62.39h-262.34V207.87h246.26v62.4h-174.41v76.1h154.09v65.7h-154.09ZM1687.68 271.68l-107.3.48v-62.4h287.86v62.4l-106.35-.48v275.1h-74.21ZM1976.48 402.14v143.7h-72.32V207.4h72.32v122.42h156.46V208.34h72.79v337.5h-72.79v-143.7ZM2586.24 376.62a167.1 167.1 0 0 1-13.95 68.06 179.9 179.9 0 0 1-37.58 55.32 175.8 175.8 0 0 1-55.54 37.34 175.22 175.22 0 0 1-135.89 0 175.33 175.33 0 0 1-92.65-92.65 169.4 169.4 0 0 1-13.7-68.06 171.2 171.2 0 0 1 13.7-68.31 174.72 174.72 0 0 1 92.65-92.88 175.22 175.22 0 0 1 135.89 0 176.2 176.2 0 0 1 55.54 37.34 179.4 179.4 0 0 1 37.58 55.54 168.8 168.8 0 0 1 13.95 68.3m-174.9-103.52a97.6 97.6 0 0 0-39.94 8.27 104.7 104.7 0 0 0-32.61 22.46 109.8 109.8 0 0 0-22.22 32.84 100.6 100.6 0 0 0 0 79.89 106 106 0 0 0 54.83 54.83 97.4 97.4 0 0 0 39.94 8.27 95.8 95.8 0 0 0 39.71-8.27 107.6 107.6 0 0 0 32.38-22.22 103.5 103.5 0 0 0 22-32.61 103.37 103.37 0 0 0 0-79.89 106 106 0 0 0-54.36-55.3 96 96 0 0 0-39.73-8.27M2628.78 209.29h145.58q32.61 0 60.74 10.4a131.9 131.9 0 0 1 48.69 31.19q20.55 20.82 32.14 52t11.58 73.26q0 36.87-9.45 68.07t-28.6 53.88a133.9 133.9 0 0 1-47.74 35.69q-28.6 13-67.36 13h-145.58Zm74.22 275.1h66.17a95.3 95.3 0 0 0 31.2-5.2 68.8 68.8 0 0 0 26.94-17.25q11.8-12.06 18.91-31.44t7.09-47.27q0-25.51-5-46.08T2832 301.93q-11.34-14.64-30-22.45t-46.08-7.8H2703Z" class="cls-2"/></g></g></svg>