<svg xmlns="http://www.w3.org/2000/svg" viewBox="0 0 398 190"><path d="M259.42 188.96c-1.53.77-1.6-7.03-5.72-7.04-3.68 0-6.22-1.01-8.73-3.56l-8.4 4.46c-7.1 3.77-15.83 4.24-23.83 1.92-9.31-2.71-2.47-2.97-8.66-11.39-10.45 2.3-7.93 10.32-16.67 10.51-4.23.09-7.48-1.75-9.75-5.73-3.36-5.89-7.65-2.44-16.22-5.48-3.38 8.63-20.14 16.24-31.53 13.29-1.82-2.98-3.75-7.5-4.88-10.59l-7.87 2.17-24.08 6.64-1.56-7.9c-12.72 3.16-24.16 2.48-33.28-10.18l-4.04 5.61c-11.22 1.22-22.39 3.97-33.45 7.2L.58 184.77c3.61-13.87 6.96-15.67 8.16-26.98 1.58-14.87 9.02-24.23 8.73-34.72-.38-13.73.05-26.69 1.79-40.29 1.87-14.58-5.81-17.16 6.58-31.08 3.82-4.3 7.54-8.41 12.72-11.18l13.33-7.14 10 26.33-7.82 10.22c-1.93 12.1-2.52 23.74-.76 36.34 1.91-6.33 3.56-12.56 4.15-19.27.42-4.83-1.31-11.07.8-15.39 3.24-6.65 11.18-17.36 17.77-21.28 6.81 4.21 12.52 8.31 18.8 13.38l2.02-7.28 3.05-11c2.18-7.86 4.19-15.14 7.2-22.84 1.57-4.01 2.14-8.81 3.19-13.26L131.48.72c2.11 1.92 4.23 4.27 6.21 6.68 7.32 8.9 10.11 13.67 2.26 26.31-2.13 3.42-3.01 6.46-2.19 10.59 4.1-3.82 8.23-3.48 13.03-.44 4.89-13.01 21.39-15.92 34.39-18.96l2.03 5.63 8.76-3.37 9.06 17.83 10.09-13.18c7.91 4.06 16.35 7.68 22.36 13.71 1.92 5.88 3.69 11.87 6.11 17.55l3.6-4.74c.76-1 4.15.72 5.54.76l11.87.41 4.26-7.53c2.03-3.6 3.67-10.95 9.17-11.06l11.93-.24 16.25-.7 46.52-.71c6.83-.1 13.22-.09 19.78 1.83l12.68 3.71-3.73 6.63c-4.25 7.56-10.16 12.7-16.02 19.2l-7.02 7.8c-4.97 5.53-10.63 10.95-12.11 18.43-.64 3.25-1.08 6.01-3.11 8.35l-7.84 9.02c-3.58 4.12-4.39 10.36-9.41 13.57l23.1-2.49c7.7-.83 7.35 2.48 20.94.16 8.78-8.09 17.22-16.05 27.27-24.27-3.08 15.6-6.37 30.36-10.19 44.51-.69 2.57-3.38 6.77-4.23 9.16-4.26 3.46-11.29 2.45-16.8 2.47-7.26.03-14.27.06-21.21.65l-13.78 1.17c7.05 5.17-3.63 17.25-6.6 19.14-8.4 5.34-17.43 1.04-25.92-.06-23.1.52-18.7.44-36.12 9.19l-3 1.51ZM46.04 48.38c-5.3 1.6-17.67 13.25-17.14 17.88l1.1 9.51c1.04 8.99-2.09 11.75-2.12 25.81l-.04 23.48c0 6.2-2.22 12.28-4.52 17.94 3.92 3.86 11.38 16.83 8 22.44l15.02-3.89c3.68-.95 8.59-5.59 11.26-8.67 3.2-3.7 2.14-12.22 7.28-17.35.79 8.04 1.33 14.88 2.55 22.01 1.31 7.68 7.7 10.47 14.52 9.76 4.56-.47 8.06-.1 10.92-4.58 1.08-1.7 3.69-4.22 4.18-6.32l9.73-41.76c1.31-5.61 4.09-7.44 3.48-13.81-.93-9.66 5.2-19.94 6.61-29.08-.81-2.49-1.86-6.12-2.08-7.76l4.32.29c-.29-.02 6.2-16.43 7.16-19.58 1.19-3.9.36-8.96 2.56-12.62s4.79-7.59 5.17-11.61c-.48-2.1-3.26-5.6-4.96-7.33l-9.53 3.9c-1.08 4.6-1.89 7.95-3.6 11.78-2.62 5.87-3.8 12.19-5.6 18.41l-3.62 12.53-7.2 25.68c-1.09 3.9-.74 8.33-1.37 12.7-2.5 17.26-8.82 16.48-9.46 27.05-.49 8.06-1.92 16.91-8.91 22.68-2.31-5.96-1.55-24.1 4.18-26.41-4.49-4.04-5.13-9.08-4.73-14.47.9-12.31 1.01-26.78 7.54-37.38l-10.03-6.39c-1.47.88-3.91 2.32-4.99 3.31l-6.64 6.09c3.63 4.87 2.04 11.26 2.07 17.01.12 22.15-2.23 18.3-11.96 39.54l-5.38 11.73c-1.93 4.21-6.63 8.24-11.27 10.5 3.21-6.41 5.36-11.3 5.65-17.96.38-8.62.65-17.44-.22-26.04-1.38-13.63-2.74-14.97-.45-30.26 3.26-21.79 10.27-16.02 2.5-28.74Zm74.51 117.83c2.14-4.44 3.47-10.67 4.31-15.96.71-4.48 3.08-8.57 4.22-12.45l2.82-9.61c1.2-4.08.81-10.57 1.11-15.1 4.18.39 6.62.05 11.54-1.22l-.65 13.32c-.22 4.44-.53 8.62-1.13 13.04l-1.54 11.44-1.43 17.48c-.25 3.09-1.38 5.96-3.47 8.58 4.65.04 11.25-1.99 14.95-6.19l.26-27.68c.03-3.4 1.81-7.88 3.21-10.98-2.86-9.29-.89-17.85 1.77-26.76 1.65-5.52 2.53-11.06 4.83-16.58 1.19-2.86.35-5.47-.98-7.17 1.65-1.35 4.68-4.24 5.05-6.46l1.84-11.12c1.01-6.1 1.04-12.6 4.38-17.88 1.64-2.58 2.75-5.03 2.92-7.36-4.66 2.85-10.09 4.05-12.12 7.4l-3.66 7.62c-1.95 4.06-1.94 8.77-2.58 13.27-.9 6.29-5.47 23.75-7.62 29.48-1.13 3.03-1.73 5.5-2.34 8.83l-12.75.48c-.39-4.77 1.14-7.33 2.53-11.27s.96-9.73 2.01-14.01l2.41-9.83 4.22-17.2c-4.9 2.92-10.38 5.54-15.71 7.6 1.01 6.02-4.26 6.29-3.61 17.03.59 9.84-1.48 18.42-4.24 27.58-1.02 3.39-1.61 5.58-5.99 5.95l-5.4 7.17c3.35-1.65 6.77-2.64 10.49-1.86.73 9-1.47 17.03-3.52 25.42-2.42 9.92-5.45 19.05-10.52 29.25 4.09-2.38 8.91-3.37 14.4-4.24Zm75.11-21.83c.28 3.65 1.12 7.76.53 10.31l-2.74 11.94c6.32-3.16 10.47-5.51 15.34-8.68-.55-2.38-1.61-5.17-1.81-6.96l-1.5-13.57c-.38-3.46-.86-6.62-1.79-10.11l-1.91-7.15 7.32-2.98-10.08-3.42c-3.79-15.49-1.56-16.32-3.14-32.82l-2.11-22.07 1.27-10.37-3.63-8.56-10.56 5.8c-.24 5.32-1.1 9.94-3.07 14.84-1.53 3.79-1.89 7.37-2.74 11.39-3.3 15.76-6.7 21.51-9.3 38.63-.72 4.74-3.44 10-3.78 14.69-1.71 23.37-6.25 14.84-7.72 34.19 1.7.14 4.16.45 5.7 1.11l7.01 2.99c-1.72-6.55.94-10.14 1.7-15.26l2.58-17.39c.27-1.79.82-5.04 2.14-6.02 1.58-1.16 15.7-1.02 17.99 1.23 4.93 4.83 3.79 11.85 4.28 18.25Zm50.81-26.27c2.73 2.1 4.89 5.71 5.86 8.63 5.88 17.71 18.24 28.75 16.14 46.7l8.65-7.78c.4-7.81-1.68-12.04-5.37-17.65-6.52-9.89-2.68-19.16-15.09-37.32-.91-1.33-4.99-2.83-4.6-4.31l1.6-6.07c-2.95-1.67-6.18-4.06-7.21-7.87l-5.69-3.47 4.2-2.17c-4.43-4.32-6.65-9.77-9-15.46-2.89-7.01-6.36-13.96-7.73-20.95l-10.24-5.26c-1.57 1.76-4.74 4.99-5.08 7.09l-1.81 11.22c-.35 2.17-1.29 5.89-1.16 7.96l.74 12.61c.42 7.24 1 14.22-1.18 20.98-1.65 5.12 1.45 8.19 4.78 11.29-1.85 3.84-3.85 8.49-2.39 13.04 2.83 8.82 3.65 29.67 2.61 38.71-.33 2.82.36 6.76 3.59 7.35 5.66 1.03 11.48-.36 15.86-2.67-6.04-4.27-3.67-14.29-6.26-22.9-.93-3.09-1.77-5.36-2-8.46-.4-5.34-3.23-10.86.95-16.04 1.92-2.38 18.07-8.56 19.82-7.21Zm49.74 32.75 15.73-.44c4.44-.12 8.2-.5 12.35-.92 14.36-1.48 28.25-2.89 42.82-2.73 3.42.04 7.68 2.21 9.5-3.63l4-12.84-5.92 4.71c-6.81 2.24-13.83 1.26-20.93.89-10.92-.57-21.82 1.62-32.61 3.49-5.12.89-8.78 1.84-14.92.66l7.86-5.32c1.33-2.89 1.59-8.97 3.57-11.93l9.52-14.26c4-6 8.36-9.32 9.39-16.27.64-4.28 4.93-11.2 8.04-14.41l25.49-26.34c-4.28-1.62-7.96-2.34-12.1-1.84-7.21.88-13.8.26-20.99.38l-15.99.27-28.01.68c-3.69.09-8.52-.71-12.01-.25l-4.63 10.15c8.32 3.22 15.9.82 24.31.63l23.64-.52c-1.76.04 25.64-2.56 17.49 2.23l-1.67.98c-5.29 3.11-8.71 6.89-11.12 12.63-1.06 2.52-10.23 15.72-12.05 17.62.23 6.46-4.84 11.2-8.95 15.98-1.72 2-3.59 6.42-4.8 9.2-5.11 11.75-7.37 8.77-15.53 20.91-1.79 2.67-1.1 9.16 1.97 9.55 1.87.24 5 .81 6.59.76Zm-14.19-39.1-10.58 14.11c3.83-1.05 5.72-3.63 9.71-5.32-1.93 5.07-5.93 8.76-9.76 11.79l3.88 8.77 3.26 6.99c4.24-12.07 10.06-21.26 18.12-30.58 1.06-1.22 2.16-3.26 2.59-4.45l-4.23.94c4.35-5.65 7.08-10.68 10.27-16.7 4.66-8.79 17.31-22.02 14.87-24.99-.55-.67-2.2-1.73-2.96-2.5-3.39-3.44-6.5-3.7-11.42-2.49-6.22 1.53-13.94-.65-20.28.55-4.67.88-8.73 1.56-13.55 1.62l-18.82.22c-2.12.03-5.14 4.13-6.09 6.17l7.03 5.81 14.02-1.44c6.12-.63 12.01.15 18.1-.3l14.11-1.04c-4.95 5.66-7.53 9.46-10.67 14.76l-4.04 6.81c-1.51 2.56-2.85 5.45-3.79 7.76 1.81.52 2.93.7 2.47 1.16-.36.35-1.81 1.76-2.25 2.35Zm-29.62 59.81c4.13-.88 7.83-2.12 11.81-3.77-1.6-7.48-3.94-13.81-8.8-19.84-1.36 6.96-4.49 11.41-9.08 16.07zm-235.09-1.65c3.63-1.91 8.04-4.49 10.05-7.52.38-4.44-2.84-9.5-6.12-12.49-.79 3.22-1.69 6.09-2.08 8.55l-1.84 11.47ZM186.07 174l5.08-4.89 2.44-17.69-4.63 4.53-2.9 18.05Zm132.69-4.21 3.77-5.66-3.77-7.79c-8-.1-15.47.07-23.25-.6-5.63-.48-11.58-2.65-16.36.79 1.54 4.13 2.53 7.94 2.48 12.2l9.09-.9c4.12-.41 7.81-1.23 12.01.21 5.23 1.79 10.79 2.87 16.03 1.75"/><path d="M239.96 106.87c-5.04 5.22-11.57 7.42-18.34 7.95l-.78-23.07c-.25-7.31-3.45-14.8.92-21.85 5.42 5.29 6.1 12.17 8.77 18.05l6.1 13.42c.53 1.17 2.18 3.53 3.32 5.51ZM219.53 51.98c1.3-3.92 8.74 14.62 6.82 13.39-6.63-1.74-7.46-7.64-6.82-13.39M193.24 114.81c-5.66 3.24-11.83 3.32-17.92 1.85l4.36-17.52c1.94-7.81 1.56-15.64 6.31-23.53 3.6 5.77 3.13 11.96 3.69 18.34.6 6.86 2.01 13.25 3.55 20.86Z"/></svg>